<?xml version="1.0" encoding="UTF-8"?>
<svg id="Layer_1" data-name="Layer 1" xmlns="http://www.w3.org/2000/svg" viewBox="0 0 28.03 28.03">
  <circle cx="14.01" cy="14.01" r="14.01"/>
  <g>
    <path d="m14.01,15.16c-.16,0-.32-.04-.46-.12l-8.7-4.96c-.29-.16-.47-.47-.47-.81v-.48c0-.83.68-1.51,1.51-1.51h15.89c1.02,0,1.86.83,1.86,1.86v.12c0,.33-.18.64-.47.81l-8.7,4.97c-.14.08-.3.12-.46.12Zm-8.47-6.02l8.47,4.84,8.47-4.84c0-.38-.32-.7-.7-.7H5.9c-.19,0-.35.16-.35.35v.34Z" style="fill: #fff;"/>
    <path d="m22.13,20.75H5.9c-.83,0-1.51-.68-1.51-1.51v-7.08c0-.21.11-.4.29-.5.18-.1.4-.1.58,0l8.76,5,8.76-5c.18-.1.4-.1.58,0,.18.1.29.29.29.5v7.08c0,.83-.68,1.51-1.51,1.51ZM5.54,13.16v6.08c0,.19.16.35.35.35h16.24c.19,0,.35-.16.35-.35v-6.08l-7.92,4.52c-.34.2-.78.19-1.11,0l-7.91-4.52Zm8.49,3.52h0s0,0,0,0Z" style="fill: #fff;"/>
  </g>
</svg>